<?xml version="1.0" encoding="utf-8"?>
<!-- Generator: Adobe Illustrator 16.0.0, SVG Export Plug-In . SVG Version: 6.00 Build 0)  -->
<!DOCTYPE svg PUBLIC "-//W3C//DTD SVG 1.1//EN" "http://www.w3.org/Graphics/SVG/1.1/DTD/svg11.dtd">
<svg version="1.1" id="Layer_1" xmlns="http://www.w3.org/2000/svg" xmlns:xlink="http://www.w3.org/1999/xlink" x="0px" y="0px"
	 width="141.73px" height="42.52px" viewBox="0 0 141.73 42.52" enable-background="new 0 0 141.73 42.52" xml:space="preserve">
<g>
	<path fill="#2559A9" d="M19.483,15.94c1.67,1.87,1.676,4.3,1.681,6.451c0.005,2.359,0.011,4.649-1.547,6.527
		c-1.003,1.216-2.633,2.054-4.68,2.058c-1.7,0.006-3.229-0.79-4.169-2.106l0.02,8.26l-2.429,0.006L8.323,22.145
		c-0.007-2.812-0.011-4.443,1.374-6.077c1.349-1.599,3.361-2.09,4.958-2.093C16.737,13.968,18.404,14.762,19.483,15.94
		 M11.575,17.52c-0.831,0.974-0.827,2.431-0.823,4.271c0.005,2.568,0.01,4.477,1.054,5.689c0.626,0.728,1.634,1.211,2.953,1.208
		c1.319-0.003,2.324-0.49,2.947-1.222c1.039-1.216,1.034-3.125,1.029-5.068c-0.004-1.979-0.008-3.749-1.122-4.995
		c-0.626-0.693-1.668-1.141-2.953-1.138C13.411,16.267,12.232,16.721,11.575,17.52"/>
	
		<path fill="none" stroke="#2559A9" stroke-width="0.879" stroke-linecap="round" stroke-linejoin="round" stroke-miterlimit="10" d="
		M19.483,15.94c1.67,1.87,1.676,4.3,1.681,6.451c0.005,2.359,0.011,4.649-1.547,6.527c-1.003,1.216-2.633,2.054-4.68,2.058
		c-1.7,0.006-3.229-0.79-4.169-2.106l0.02,8.26l-2.429,0.006L8.323,22.145c-0.007-2.812-0.011-4.443,1.374-6.077
		c1.349-1.599,3.361-2.09,4.958-2.093C16.737,13.968,18.404,14.762,19.483,15.94z M11.575,17.52
		c-0.831,0.974-0.827,2.431-0.823,4.271c0.005,2.568,0.01,4.477,1.054,5.689c0.626,0.728,1.634,1.211,2.953,1.208
		c1.319-0.003,2.324-0.49,2.947-1.222c1.039-1.216,1.034-3.125,1.029-5.068c-0.004-1.979-0.008-3.749-1.122-4.995
		c-0.626-0.693-1.668-1.141-2.953-1.138C13.411,16.267,12.232,16.721,11.575,17.52z"/>
	<path fill="#2559A9" d="M35.857,29.124c-1.039,1.217-2.668,1.812-4.75,1.815c-1.666,0.004-3.089-0.34-4.202-1.136
		c-1.147-0.795-2.087-2.181-2.092-3.985c-0.004-1.84,0.93-3.195,2.038-3.996c1.628-1.184,3.572-1.188,4.926-1.191l2.846-0.006
		c-0.002-1.076-0.006-2.464-0.841-3.399c-0.591-0.658-1.494-1.003-2.813-1c-1.526,0.004-3.052,0.354-4.509,0.914l-0.768-2.185
		c1.629-0.594,3.398-1.015,5.272-1.019c2.083-0.004,3.645,0.651,4.689,1.829c1.392,1.559,1.396,3.606,1.401,5.445l0.005,2.569
		C37.064,26.102,37.068,27.699,35.857,29.124 M34.628,22.776l-2.846,0.007c-1.18,0.003-2.429,0.005-3.399,0.701
		c-0.624,0.453-1.143,1.252-1.14,2.328c0.002,0.972,0.49,1.734,1.116,2.184c0.66,0.449,1.633,0.655,2.743,0.652
		c1.284-0.002,2.29-0.282,2.878-0.979c0.658-0.765,0.656-1.841,0.65-3.888L34.628,22.776z"/>
	
		<path fill="none" stroke="#2559A9" stroke-width="0.879" stroke-linecap="round" stroke-linejoin="round" stroke-miterlimit="10" d="
		M35.857,29.124c-1.039,1.217-2.668,1.812-4.75,1.815c-1.666,0.004-3.089-0.34-4.202-1.136c-1.147-0.795-2.087-2.181-2.092-3.985
		c-0.004-1.84,0.93-3.195,2.038-3.996c1.628-1.184,3.572-1.188,4.926-1.191l2.846-0.006c-0.002-1.076-0.006-2.464-0.841-3.399
		c-0.591-0.658-1.494-1.003-2.813-1c-1.526,0.004-3.052,0.354-4.509,0.914l-0.768-2.185c1.629-0.594,3.398-1.015,5.272-1.019
		c2.083-0.004,3.645,0.651,4.689,1.829c1.392,1.559,1.396,3.606,1.401,5.445l0.005,2.569C37.064,26.102,37.068,27.699,35.857,29.124
		z M34.628,22.776l-2.846,0.007c-1.18,0.003-2.429,0.005-3.399,0.701c-0.624,0.453-1.143,1.252-1.14,2.328
		c0.002,0.972,0.49,1.734,1.116,2.184c0.66,0.449,1.633,0.655,2.743,0.652c1.284-0.002,2.29-0.282,2.878-0.979
		c0.658-0.765,0.656-1.841,0.65-3.888L34.628,22.776z"/>
	<path fill="#2559A9" d="M42.345,14.118l3.288,11.167c0.525,1.804,0.77,2.566,0.979,2.878c0.209,0.312,0.556,0.381,0.903,0.415
		l3.09-14.479l2.499-0.006l-3.95,18.021c-0.377,1.701-0.653,2.777-1.414,3.646c-0.727,0.835-1.906,1.498-3.363,1.5
		c-0.764,0.002-1.562-0.17-2.326-0.446l0.723-2.153c0.556,0.207,1.077,0.311,1.598,0.309c0.659-0.001,1.11-0.211,1.49-0.592
		c0.485-0.487,0.692-1.287,1.172-3.543c-0.972-0.137-1.771-0.586-2.258-1.21c-0.522-0.692-0.663-1.317-1.432-3.814l-3.533-11.687
		L42.345,14.118z"/>
	
		<path fill="none" stroke="#2559A9" stroke-width="0.879" stroke-linecap="round" stroke-linejoin="round" stroke-miterlimit="10" d="
		M42.345,14.118l3.288,11.167c0.525,1.804,0.77,2.566,0.979,2.878c0.209,0.312,0.556,0.381,0.903,0.415l3.09-14.479l2.499-0.006
		l-3.95,18.021c-0.377,1.701-0.653,2.777-1.414,3.646c-0.727,0.835-1.906,1.498-3.363,1.5c-0.764,0.002-1.562-0.17-2.326-0.446
		l0.723-2.153c0.556,0.207,1.077,0.311,1.598,0.309c0.659-0.001,1.11-0.211,1.49-0.592c0.485-0.487,0.692-1.287,1.172-3.543
		c-0.972-0.137-1.771-0.586-2.258-1.21c-0.522-0.692-0.663-1.317-1.432-3.814l-3.533-11.687L42.345,14.118z"/>
	<path fill="#2559A9" d="M66.121,16.283c0.933-1.564,2.527-2.435,4.506-2.439c1.631-0.003,3.055,0.583,3.994,1.483
		c1.739,1.662,1.744,3.813,1.75,6.417l0.021,8.884l-2.429,0.006l-0.021-8.884c-0.004-2.29-0.009-3.852-1.053-4.821
		c-0.521-0.484-1.32-0.795-2.257-0.793c-0.937,0.002-1.734,0.316-2.254,0.804c-1.039,0.974-1.035,2.536-1.03,4.826l0.021,8.885
		l-2.429,0.006l-0.021-8.884c-0.006-2.29-0.009-3.852-1.052-4.821c-0.521-0.484-1.32-0.795-2.257-0.793
		c-0.938,0.002-1.734,0.316-2.254,0.803c-1.038,0.974-1.035,2.536-1.03,4.826l0.021,8.885l-2.429,0.006l-0.021-8.884
		c-0.006-2.604-0.011-4.755,1.72-6.424c0.935-0.905,2.356-1.499,3.987-1.502C63.582,13.86,65.18,14.724,66.121,16.283"/>
	
		<path fill="none" stroke="#2559A9" stroke-width="0.879" stroke-linecap="round" stroke-linejoin="round" stroke-miterlimit="10" d="
		M66.121,16.283c0.933-1.564,2.527-2.435,4.506-2.439c1.631-0.003,3.055,0.583,3.994,1.483c1.739,1.662,1.744,3.813,1.75,6.417
		l0.021,8.884l-2.429,0.006l-0.021-8.884c-0.004-2.29-0.009-3.852-1.053-4.821c-0.521-0.484-1.32-0.795-2.257-0.793
		c-0.937,0.002-1.734,0.316-2.254,0.804c-1.039,0.974-1.035,2.536-1.03,4.826l0.021,8.885l-2.429,0.006l-0.021-8.884
		c-0.006-2.29-0.009-3.852-1.052-4.821c-0.521-0.484-1.32-0.795-2.257-0.793c-0.938,0.002-1.734,0.316-2.254,0.803
		c-1.038,0.974-1.035,2.536-1.03,4.826l0.021,8.885l-2.429,0.006l-0.021-8.884c-0.006-2.604-0.011-4.755,1.72-6.424
		c0.935-0.905,2.356-1.499,3.987-1.502C63.582,13.86,65.18,14.724,66.121,16.283z"/>
	<path fill="#2559A9" d="M87.455,28.52c1.492-0.004,2.982-0.355,4.23-1.018l1.012,2.079c-1.629,0.837-3.433,1.224-5.237,1.228
		c-2.394,0.006-4.306-0.857-5.419-2.348c-1.323-1.802-1.328-3.884-1.334-6.139c-0.006-2.708-0.01-4.303,1.236-6.042
		c1.106-1.564,3.188-2.472,5.65-2.477c1.736-0.004,3.125,0.444,4.168,1.275c1.043,0.865,1.705,2.148,1.744,3.5
		c0.003,1.527-0.758,2.708-1.729,3.405c-1.455,1.045-2.947,1.048-5.411,1.053l-3.192,0.008c0.002,0.902,0.006,2.95,0.808,4.024
		C84.678,28.004,85.789,28.521,87.455,28.52 M90.169,16.817c-0.591-0.484-1.493-0.725-2.569-0.723
		c-1.562,0.004-2.811,0.458-3.572,1.362c-0.865,1.008-0.86,2.743-0.859,3.438l3.193-0.008c2.186-0.005,3.158-0.007,3.885-0.563
		c0.451-0.349,0.831-0.939,0.83-1.737C91.039,17.926,90.691,17.232,90.169,16.817"/>
	
		<path fill="none" stroke="#2559A9" stroke-width="0.879" stroke-linecap="round" stroke-linejoin="round" stroke-miterlimit="10" d="
		M87.455,28.52c1.492-0.004,2.982-0.355,4.23-1.018l1.012,2.079c-1.629,0.837-3.433,1.224-5.237,1.228
		c-2.394,0.006-4.306-0.857-5.419-2.348c-1.323-1.802-1.328-3.884-1.334-6.139c-0.006-2.708-0.01-4.303,1.236-6.042
		c1.106-1.564,3.188-2.472,5.65-2.477c1.736-0.004,3.125,0.444,4.168,1.275c1.043,0.865,1.705,2.148,1.744,3.5
		c0.003,1.527-0.758,2.708-1.729,3.405c-1.455,1.045-2.947,1.048-5.411,1.053l-3.192,0.008c0.002,0.902,0.006,2.95,0.808,4.024
		C84.678,28.004,85.789,28.521,87.455,28.52z M90.169,16.817c-0.591-0.484-1.493-0.725-2.569-0.723
		c-1.562,0.004-2.811,0.458-3.572,1.362c-0.865,1.008-0.86,2.743-0.859,3.438l3.193-0.008c2.186-0.005,3.158-0.007,3.885-0.563
		c0.451-0.349,0.831-0.939,0.83-1.737C91.039,17.926,90.691,17.232,90.169,16.817z"/>
	<path fill="#2559A9" d="M123.289,27.564l0.02,8.372c3.934-1.577,7.121-4.591,8.936-8.394L123.289,27.564z"/>
	<path fill="#2559A9" d="M111.237,19.111c-1.233,2.309-1.604,2.941-1.603,3.795c0.002,0.283,0.049,0.52,0.239,0.804
		c0.38,0.567,1.043,0.565,2.843,0.562l7.248-0.018l-0.019-7.957l3.316-0.008l0.019,7.958l10.137-0.022
		c0.304-1.271,0.48-2.591,0.477-3.955c-0.02-8.463-6.283-15.433-14.416-16.61L111.237,19.111z"/>
	<path fill="#2559A9" d="M119.973,27.57l-6.773,0.016c-2.274,0.006-3.364,0.009-4.502-0.557c-1.423-0.709-2.562-2.08-2.568-4.115
		c-0.004-1.706,0.887-3.293,1.789-4.979l7.696-14.397c-8.645,0.731-15.427,7.978-15.406,16.809
		c0.021,9.302,7.58,16.827,16.883,16.806c0.992-0.004,1.958-0.107,2.903-0.275L119.973,27.57z"/>
</g>
</svg>
