<?xml version="1.0" encoding="utf-8"?>
<!-- Generator: Adobe Illustrator 16.0.0, SVG Export Plug-In . SVG Version: 6.00 Build 0)  -->
<!DOCTYPE svg PUBLIC "-//W3C//DTD SVG 1.1//EN" "http://www.w3.org/Graphics/SVG/1.1/DTD/svg11.dtd">
<svg version="1.1" id="Layer_1" xmlns="http://www.w3.org/2000/svg" xmlns:xlink="http://www.w3.org/1999/xlink" x="0px" y="0px"
	 width="141.73px" height="42.52px" viewBox="0 0 141.73 42.52" enable-background="new 0 0 141.73 42.52" xml:space="preserve">
<path fill="#FFFFFF" d="M19.306,16.086c1.678,1.881,1.685,4.323,1.688,6.487c0.007,2.37,0.012,4.674-1.553,6.561
	c-1.009,1.224-2.647,2.064-4.706,2.069c-1.709,0.005-3.246-0.795-4.19-2.118l0.02,8.305l-2.443,0.005L8.087,22.323
	c-0.008-2.826-0.011-4.466,1.381-6.109c1.357-1.608,3.379-2.101,4.984-2.105C16.545,14.104,18.222,14.902,19.306,16.086
	 M11.355,17.676c-0.835,0.979-0.832,2.443-0.827,4.293c0.005,2.581,0.011,4.5,1.06,5.718c0.629,0.732,1.643,1.219,2.968,1.215
	c1.326-0.003,2.337-0.493,2.963-1.228c1.043-1.224,1.039-3.143,1.035-5.097c-0.005-1.988-0.01-3.767-1.129-5.021
	c-0.63-0.696-1.677-1.147-2.967-1.145C13.202,16.415,12.016,16.871,11.355,17.676"/>
<path fill="none" stroke="#FFFFFF" stroke-width="0.879" stroke-linecap="round" stroke-linejoin="round" stroke-miterlimit="10" d="
	M19.306,16.086c1.678,1.881,1.685,4.323,1.688,6.487c0.007,2.37,0.012,4.674-1.553,6.561c-1.009,1.224-2.647,2.064-4.706,2.069
	c-1.709,0.005-3.246-0.795-4.19-2.118l0.02,8.305l-2.443,0.005L8.087,22.323c-0.008-2.826-0.011-4.466,1.381-6.109
	c1.357-1.608,3.379-2.101,4.984-2.105C16.545,14.104,18.222,14.902,19.306,16.086z M11.355,17.676
	c-0.835,0.979-0.832,2.443-0.827,4.293c0.005,2.581,0.011,4.5,1.06,5.718c0.629,0.732,1.643,1.219,2.968,1.215
	c1.326-0.003,2.337-0.493,2.963-1.228c1.043-1.224,1.039-3.143,1.035-5.097c-0.005-1.988-0.01-3.767-1.129-5.021
	c-0.63-0.696-1.677-1.147-2.967-1.145C13.202,16.415,12.016,16.871,11.355,17.676z"/>
<path fill="#FFFFFF" d="M35.767,29.34c-1.044,1.224-2.682,1.821-4.774,1.825c-1.675,0.005-3.107-0.342-4.224-1.142
	c-1.154-0.799-2.099-2.192-2.104-4.007c-0.003-1.85,0.935-3.211,2.049-4.017c1.637-1.189,3.59-1.195,4.952-1.197l2.86-0.006
	c-0.003-1.082-0.005-2.479-0.845-3.418c-0.594-0.661-1.502-1.009-2.828-1.005c-1.535,0.002-3.069,0.355-4.533,0.917l-0.772-2.196
	c1.639-0.597,3.417-1.02,5.3-1.025c2.092-0.004,3.665,0.655,4.714,1.838c1.399,1.568,1.404,3.625,1.409,5.474l0.005,2.582
	C36.981,26.303,36.985,27.907,35.767,29.34 M34.531,22.959l-2.861,0.007c-1.186,0.003-2.442,0.005-3.417,0.706
	c-0.626,0.454-1.149,1.258-1.146,2.34c0.003,0.976,0.493,1.742,1.123,2.195c0.664,0.451,1.641,0.658,2.758,0.655
	c1.291-0.002,2.301-0.284,2.894-0.983c0.66-0.769,0.658-1.851,0.653-3.908L34.531,22.959z"/>
<path fill="none" stroke="#FFFFFF" stroke-width="0.879" stroke-linecap="round" stroke-linejoin="round" stroke-miterlimit="10" d="
	M35.767,29.34c-1.044,1.224-2.682,1.821-4.774,1.825c-1.675,0.005-3.107-0.342-4.224-1.142c-1.154-0.799-2.099-2.192-2.104-4.007
	c-0.003-1.85,0.935-3.211,2.049-4.017c1.637-1.189,3.59-1.195,4.952-1.197l2.86-0.006c-0.003-1.082-0.005-2.479-0.845-3.418
	c-0.594-0.661-1.502-1.009-2.828-1.005c-1.535,0.002-3.069,0.355-4.533,0.917l-0.772-2.196c1.639-0.597,3.417-1.02,5.3-1.025
	c2.092-0.004,3.665,0.655,4.714,1.838c1.399,1.568,1.404,3.625,1.409,5.474l0.005,2.582C36.981,26.303,36.985,27.907,35.767,29.34z
	 M34.531,22.959l-2.861,0.007c-1.186,0.003-2.442,0.005-3.417,0.706c-0.626,0.454-1.149,1.258-1.146,2.34
	c0.003,0.976,0.493,1.742,1.123,2.195c0.664,0.451,1.641,0.658,2.758,0.655c1.291-0.002,2.301-0.284,2.894-0.983
	c0.66-0.769,0.658-1.851,0.653-3.908L34.531,22.959z"/>
<path fill="#FFFFFF" d="M42.289,14.254l3.305,11.227c0.528,1.813,0.774,2.579,0.983,2.893c0.211,0.314,0.559,0.384,0.908,0.417
	l3.106-14.556l2.512-0.005l-3.97,18.116c-0.379,1.71-0.656,2.793-1.421,3.668c-0.731,0.838-1.916,1.504-3.38,1.507
	c-0.769,0.002-1.571-0.171-2.339-0.449l0.728-2.163c0.558,0.208,1.082,0.311,1.606,0.31c0.663-0.001,1.115-0.212,1.499-0.597
	c0.487-0.489,0.695-1.292,1.178-3.561c-0.977-0.137-1.78-0.59-2.271-1.217c-0.525-0.696-0.665-1.324-1.438-3.834l-3.551-11.75
	L42.289,14.254z"/>
<path fill="none" stroke="#FFFFFF" stroke-width="0.879" stroke-linecap="round" stroke-linejoin="round" stroke-miterlimit="10" d="
	M42.289,14.254l3.305,11.227c0.528,1.813,0.774,2.579,0.983,2.893c0.211,0.314,0.559,0.384,0.908,0.417l3.106-14.556l2.512-0.005
	l-3.97,18.116c-0.379,1.71-0.656,2.793-1.421,3.668c-0.731,0.838-1.916,1.504-3.38,1.507c-0.769,0.002-1.571-0.171-2.339-0.449
	l0.728-2.163c0.558,0.208,1.082,0.311,1.606,0.31c0.663-0.001,1.115-0.212,1.499-0.597c0.487-0.489,0.695-1.292,1.178-3.561
	c-0.977-0.137-1.78-0.59-2.271-1.217c-0.525-0.696-0.665-1.324-1.438-3.834l-3.551-11.75L42.289,14.254z"/>
<path fill="#FFFFFF" d="M66.191,16.431c0.938-1.572,2.542-2.449,4.53-2.453c1.639-0.002,3.071,0.586,4.015,1.491
	c1.749,1.669,1.755,3.833,1.76,6.45l0.021,8.932l-2.442,0.007l-0.021-8.932c-0.006-2.303-0.01-3.872-1.059-4.848
	c-0.524-0.486-1.327-0.798-2.269-0.797c-0.943,0.003-1.744,0.319-2.266,0.809c-1.045,0.979-1.041,2.549-1.035,4.851l0.02,8.933
	l-2.442,0.006l-0.021-8.932c-0.006-2.303-0.009-3.873-1.058-4.847c-0.525-0.487-1.328-0.799-2.27-0.797
	c-0.943,0.003-1.743,0.317-2.266,0.808c-1.044,0.979-1.04,2.549-1.035,4.852l0.021,8.932L55.932,30.9l-0.02-8.931
	c-0.007-2.617-0.011-4.78,1.729-6.459c0.94-0.909,2.369-1.505,4.008-1.51C63.639,13.995,65.245,14.863,66.191,16.431"/>
<path fill="none" stroke="#FFFFFF" stroke-width="0.879" stroke-linecap="round" stroke-linejoin="round" stroke-miterlimit="10" d="
	M66.191,16.431c0.938-1.572,2.542-2.449,4.53-2.453c1.639-0.002,3.071,0.586,4.015,1.491c1.749,1.669,1.755,3.833,1.76,6.45
	l0.021,8.932l-2.442,0.007l-0.021-8.932c-0.006-2.303-0.01-3.872-1.059-4.848c-0.524-0.486-1.327-0.798-2.269-0.797
	c-0.943,0.003-1.744,0.319-2.266,0.809c-1.045,0.979-1.041,2.549-1.035,4.851l0.02,8.933l-2.442,0.006l-0.021-8.932
	c-0.006-2.303-0.009-3.873-1.058-4.847c-0.525-0.487-1.328-0.799-2.27-0.797c-0.943,0.003-1.743,0.317-2.266,0.808
	c-1.044,0.979-1.04,2.549-1.035,4.852l0.021,8.932L55.932,30.9l-0.02-8.931c-0.007-2.617-0.011-4.78,1.729-6.459
	c0.94-0.909,2.369-1.505,4.008-1.51C63.639,13.995,65.245,14.863,66.191,16.431z"/>
<path fill="#FFFFFF" d="M87.639,28.731c1.501-0.003,2.999-0.355,4.253-1.021l1.017,2.09c-1.637,0.842-3.45,1.229-5.264,1.234
	c-2.408,0.006-4.33-0.862-5.449-2.36c-1.329-1.812-1.335-3.905-1.341-6.172c-0.006-2.722-0.009-4.326,1.242-6.073
	c1.112-1.573,3.204-2.485,5.683-2.49c1.743-0.004,3.139,0.446,4.188,1.281c1.049,0.87,1.716,2.159,1.753,3.518
	c0.004,1.536-0.762,2.725-1.737,3.425c-1.463,1.051-2.962,1.052-5.439,1.058l-3.21,0.009c0.003,0.906,0.008,2.965,0.813,4.045
	C84.847,28.215,85.964,28.734,87.639,28.731 M90.367,16.968c-0.595-0.487-1.502-0.729-2.585-0.727
	c-1.569,0.004-2.824,0.459-3.59,1.369c-0.869,1.014-0.864,2.758-0.863,3.456l3.21-0.008c2.197-0.005,3.175-0.007,3.905-0.567
	c0.453-0.35,0.836-0.943,0.833-1.746C91.242,18.083,90.891,17.387,90.367,16.968"/>
<path fill="none" stroke="#FFFFFF" stroke-width="0.879" stroke-linecap="round" stroke-linejoin="round" stroke-miterlimit="10" d="
	M87.639,28.731c1.501-0.003,2.999-0.355,4.253-1.021l1.017,2.09c-1.637,0.842-3.45,1.229-5.264,1.234
	c-2.408,0.006-4.33-0.862-5.449-2.36c-1.329-1.812-1.335-3.905-1.341-6.172c-0.006-2.722-0.009-4.326,1.242-6.073
	c1.112-1.573,3.204-2.485,5.683-2.49c1.743-0.004,3.139,0.446,4.188,1.281c1.049,0.87,1.716,2.159,1.753,3.518
	c0.004,1.536-0.762,2.725-1.737,3.425c-1.463,1.051-2.962,1.052-5.439,1.058l-3.21,0.009c0.003,0.906,0.008,2.965,0.813,4.045
	C84.847,28.215,85.964,28.734,87.639,28.731z M90.367,16.968c-0.595-0.487-1.502-0.729-2.585-0.727
	c-1.569,0.004-2.824,0.459-3.59,1.369c-0.869,1.014-0.864,2.758-0.863,3.456l3.21-0.008c2.197-0.005,3.175-0.007,3.905-0.567
	c0.453-0.35,0.836-0.943,0.833-1.746C91.242,18.083,90.891,17.387,90.367,16.968z"/>
<path fill="#FFFFFF" d="M123.662,27.772l0.021,8.417c3.953-1.585,7.158-4.616,8.982-8.438L123.662,27.772z"/>
<path fill="none" stroke="#2559A9" stroke-width="0.5" stroke-miterlimit="10" d="M123.662,27.772"/>
<path fill="none" stroke="#2559A9" stroke-width="0.5" stroke-miterlimit="10" d="M132.665,27.751"/>
<path fill="none" stroke="#2559A9" stroke-width="0.5" stroke-miterlimit="10" d="M123.683,36.189"/>
<path fill="#FFFFFF" d="M111.548,19.274c-1.241,2.321-1.613,2.957-1.612,3.814c0.001,0.285,0.05,0.522,0.24,0.809
	c0.383,0.57,1.049,0.568,2.858,0.563l7.287-0.017l-0.019-7.999l3.333-0.008l0.019,8l10.192-0.023
	c0.305-1.277,0.482-2.605,0.479-3.977c-0.019-8.507-6.316-15.514-14.493-16.697L111.548,19.274z"/>
<path fill="#FFFFFF" d="M120.329,27.779l-6.81,0.015c-2.286,0.006-3.383,0.009-4.526-0.56c-1.43-0.713-2.576-2.091-2.582-4.138
	c-0.004-1.715,0.892-3.31,1.8-5.005l7.737-14.473c-8.69,0.735-15.509,8.021-15.488,16.898c0.022,9.353,7.62,16.916,16.972,16.895
	c0.998-0.003,1.969-0.109,2.92-0.276L120.329,27.779z"/>
<path fill="none" stroke="#2559A9" stroke-width="0.5" stroke-miterlimit="10" d="M115.948,3.619"/>
<path fill="none" stroke="#2559A9" stroke-width="0.5" stroke-miterlimit="10" d="M108.211,18.092"/>
<path fill="none" stroke="#2559A9" stroke-width="0.5" stroke-miterlimit="10" d="M120.352,37.135"/>
<path fill="none" stroke="#2559A9" stroke-width="0.5" stroke-miterlimit="10" d="M117.432,37.411"/>
<path fill="none" stroke="#2559A9" stroke-width="0.5" stroke-miterlimit="10" d="M100.46,20.517"/>
</svg>
