<?xml version="1.0" encoding="UTF-8" standalone="no"?>
<svg width="68px" height="89px" viewBox="0 0 68 89" version="1.1" xmlns="http://www.w3.org/2000/svg" xmlns:xlink="http://www.w3.org/1999/xlink" xmlns:sketch="http://www.bohemiancoding.com/sketch/ns">
    <!-- Generator: bin/sketchtool 1.4 (305) - http://www.bohemiancoding.com/sketch -->
    <title>icon_safety</title>
    <desc>Created with bin/sketchtool.</desc>
    <defs>
        <path d="M31.8143187,44 L50.007019,44 C53.3178698,44 56,41.3124666 56,37.9972261 L56,6.00277388 C56,2.68616253 53.316851,0 50.007019,0 L5.99298096,0 C2.6821302,0 0,2.68753341 0,6.00277388 L0,18.3656457 C2.5022314,17.4812338 5.19491662,17 8,17 C21.254834,17 32,27.745166 32,41 C32,42.015981 31.93687,43.0172173 31.8143187,44 Z" id="path-1"></path>
    </defs>
    <g id="Page-1" stroke="none" stroke-width="1" fill="none" fill-rule="evenodd" sketch:type="MSPage">
        <g id="index_main" sketch:type="MSArtboardGroup" transform="translate(-236.000000, -2419.000000)">
            <g id="Group" sketch:type="MSLayerGroup" transform="translate(79.000000, 1850.000000)">
                <g id="icon_safety" transform="translate(157.000000, 569.000000)">
                    <path d="M17,41.4775391 L61,41.4775391 L61,22 C61,9.8497355 51.1502645,0 39,0 C26.8497355,0 17,9.8497355 17,22 L17,41.4775391 Z M39,40 C48.3888407,40 56,32.3888407 56,23 C56,13.6111593 48.3888407,6 39,6 C29.6111593,6 22,13.6111593 22,23 C22,32.3888407 29.6111593,40 39,40 Z" id="Oval-87" fill="#81EA4D" sketch:type="MSShapeGroup"></path>
                    <g id="Rectangle-+-Rectangle-Mask" transform="translate(12.000000, 28.000000)">
                        <mask id="mask-2" sketch:name="Mask" fill="white">
                            <use xlink:href="#path-1"></use>
                        </mask>
                        <use id="Mask" fill="#81EA4D" sketch:type="MSShapeGroup" xlink:href="#path-1"></use>
                        <rect id="Rectangle" fill-opacity="0.25" fill="#000000" sketch:type="MSShapeGroup" mask="url(#mask-2)" x="7" y="10" width="42" height="6" rx="6"></rect>
                        <rect id="Rectangle" fill-opacity="0.25" fill="#000000" sketch:type="MSShapeGroup" mask="url(#mask-2)" x="7" y="26" width="42" height="6" rx="6"></rect>
                    </g>
                    <circle id="Oval-85" fill="#81EB4D" sketch:type="MSShapeGroup" cx="20" cy="69" r="20"></circle>
                    <path d="M18.1354912,73.8118888 L12.4151367,68.0915343 C11.4143094,67.090707 9.76861625,67.0847374 8.75726553,68.0960881 C7.73886386,69.1144898 7.74387602,70.7451235 8.75271177,71.7539593 L16.0866691,79.0879167 C16.303649,79.3048965 16.5509392,79.4751157 16.8155043,79.5983451 C17.8161383,80.2336361 19.1557013,80.1165285 20.0272775,79.2449524 L32.8547573,66.4174726 C33.8636248,65.4086051 33.8686627,63.7779456 32.850261,62.7595439 C31.8389103,61.7481932 30.2017576,61.7456224 29.1923324,62.7550476 L18.1354912,73.8118888 Z" id="Rectangle-900" fill="#FFFFFF" sketch:type="MSShapeGroup"></path>
                </g>
            </g>
        </g>
    </g>
</svg>