<?xml version="1.0" encoding="UTF-8" standalone="no"?>
<svg width="86px" height="86px" viewBox="0 0 86 86" version="1.1" xmlns="http://www.w3.org/2000/svg" xmlns:xlink="http://www.w3.org/1999/xlink" xmlns:sketch="http://www.bohemiancoding.com/sketch/ns">
    <!-- Generator: bin/sketchtool 1.4 (305) - http://www.bohemiancoding.com/sketch -->
    <title>icon_easy</title>
    <desc>Created with bin/sketchtool.</desc>
    <defs></defs>
    <g id="Page-1" stroke="none" stroke-width="1" fill="none" fill-rule="evenodd" sketch:type="MSPage">
        <g id="index_main" sketch:type="MSArtboardGroup" transform="translate(-707.000000, -2420.000000)" fill="#F8A60B">
            <g id="Group" sketch:type="MSLayerGroup" transform="translate(79.000000, 1850.000000)">
                <g id="icon_easy" transform="translate(628.000000, 570.000000)" sketch:type="MSShapeGroup">
                    <path d="M43,86 C66.7482442,86 86,66.7482442 86,43 C86,19.2517558 66.7482442,0 43,0 C19.2517558,0 0,19.2517558 0,43 C0,66.7482442 19.2517558,86 43,86 Z M32.309082,39.7836914 C32.309082,39.7836914 33.8276367,61.4599609 35.847168,64.4013672 C37.8666992,67.3427734 24.4038086,66.9208984 24.4038086,66.9208984 C24.4038086,66.9208984 20.6894532,66.9030762 19.7939454,61.036377 C18.8984375,55.1696778 17.3010254,51.833008 17.9953613,44.2905275 C18.6896973,36.7480471 32.309082,39.7836914 32.309082,39.7836914 Z M35.3964844,40.8244629 C35.3964844,40.8244629 35.298584,55.6987305 37.4799805,61.9360352 C39.661377,68.1733398 61.8769527,65.3452137 61.8769527,65.3452137 C61.8769527,65.3452137 67.4926758,60.5031727 67.4926754,57.857909 C67.4926749,55.2126453 70.7731934,50.5388191 69.818359,48.696534 C70.318359,44.9418953 70.1308594,41.2666023 68.8068843,40.3142098 C67.4829093,39.3618172 66.3203129,33.0490723 54.9123535,34.9614258 C54.988525,30.9350584 63.1174312,24.0302733 54.9885254,17.2197266 C49.3986812,15.897705 49.8605953,23.1523438 48.8925781,24.6152344 C48.8925781,24.6152344 44.7648922,31.7692869 41.30542,34.5141609 C39.7426759,40.1787108 35.3964844,40.8244629 35.3964844,40.8244629 Z" id="Oval-90"></path>
                    <circle id="Oval-89" cx="30" cy="62" r="2"></circle>
                </g>
            </g>
        </g>
    </g>
</svg>