<?xml version="1.0" encoding="utf-8"?>
<!-- Generator: Adobe Illustrator 16.0.0, SVG Export Plug-In . SVG Version: 6.00 Build 0)  -->
<!DOCTYPE svg PUBLIC "-//W3C//DTD SVG 1.1//EN" "http://www.w3.org/Graphics/SVG/1.1/DTD/svg11.dtd">
<svg version="1.1" xmlns="http://www.w3.org/2000/svg" xmlns:xlink="http://www.w3.org/1999/xlink" x="0px" y="0px" width="160px"
	 height="45px" viewBox="0 0 160 45" enable-background="new 0 0 160 45" xml:space="preserve">
<g id="Layer_1" display="none">
	<rect display="inline" fill="#0066CA" width="160" height="45"/>
</g>
<g id="Layer_2">
	<g>
		<path fill="#FFFFFF" d="M141.325,31.402l-8.515,0.02c-2.861,0.006-4.23,0.011-5.66-0.701c-1.788-0.89-3.224-2.612-3.23-5.175
			c-0.004-2.144,1.115-4.139,2.251-6.258l9.676-18.101c-10.867,0.921-19.395,10.03-19.37,21.133
			c0.027,11.695,9.531,21.155,21.227,21.129c1.247-0.005,2.461-0.14,3.651-0.347L141.325,31.402z"/>
		<path fill="none" stroke="#FFFFFF" stroke-width="0.5" stroke-miterlimit="10" d="M130.345,20.767
			c-1.554,2.904-2.019,3.698-2.018,4.77c0.001,0.356,0.062,0.654,0.301,1.012c0.479,0.715,1.312,0.713,3.575,0.706l9.111-0.021
			l-0.021-10.005l4.168-0.011l0.023,10.008l12.745-0.031c0.382-1.6,0.604-3.257,0.601-4.971
			c-0.025-10.641-7.898-19.403-18.124-20.883L130.345,20.767z"/>
		<path fill="none" stroke="#FFFFFF" stroke-width="0.5" stroke-miterlimit="10" d="M141.325,31.402l-8.515,0.02
			c-2.861,0.006-4.23,0.011-5.66-0.701c-1.788-0.89-3.224-2.612-3.23-5.175c-0.004-2.144,1.115-4.139,2.251-6.258l9.676-18.101
			c-10.867,0.921-19.395,10.03-19.37,21.133c0.027,11.695,9.531,21.155,21.227,21.129c1.247-0.005,2.461-0.14,3.651-0.347
			L141.325,31.402z"/>
		<path fill="#FFFFFF" d="M130.345,20.767c-1.554,2.904-2.019,3.698-2.018,4.77c0.001,0.356,0.062,0.654,0.301,1.012
			c0.479,0.715,1.312,0.713,3.575,0.706l9.111-0.021l-0.021-10.005l4.168-0.011l0.023,10.008l12.745-0.031
			c0.382-1.6,0.604-3.257,0.601-4.971c-0.025-10.641-7.898-19.403-18.124-20.883L130.345,20.767z"/>
		<path fill="none" stroke="#FFFFFF" stroke-width="0.5" stroke-miterlimit="10" d="M145.495,31.392l0.025,10.526
			c4.942-1.981,8.952-5.771,11.231-10.552L145.495,31.392z"/>
		<path fill="#FFFFFF" stroke="#FFFFFF" stroke-miterlimit="10" d="M145.495,31.392l0.025,10.526
			c4.942-1.981,8.952-5.771,11.231-10.552L145.495,31.392z"/>
		
			<path fill="none" stroke="#FFFFFF" stroke-width="0.879" stroke-linecap="round" stroke-linejoin="round" stroke-miterlimit="10" d="
			M100.442,32.596c1.878-0.007,3.753-0.446,5.32-1.279l1.273,2.612c-2.049,1.055-4.317,1.535-6.585,1.544
			c-3.011,0.006-5.414-1.08-6.814-2.953c-1.661-2.263-1.67-4.881-1.677-7.717c-0.007-3.403-0.011-5.409,1.554-7.595
			c1.392-1.967,4.007-3.107,7.104-3.114c2.183-0.005,3.929,0.559,5.241,1.602c1.31,1.088,2.144,2.701,2.191,4.402
			c0.003,1.92-0.951,3.406-2.172,4.282c-1.829,1.312-3.704,1.314-6.803,1.323l-4.013,0.011c0.003,1.134,0.006,3.709,1.016,5.059
			C96.95,31.947,98.349,32.596,100.442,32.596z M103.855,17.883c-0.741-0.609-1.878-0.912-3.231-0.91
			c-1.964,0.005-3.531,0.576-4.488,1.712c-1.088,1.268-1.082,3.45-1.081,4.322l4.014-0.008c2.749-0.006,3.971-0.01,4.884-0.709
			c0.567-0.438,1.047-1.181,1.044-2.184C104.951,19.276,104.513,18.404,103.855,17.883z"/>
		<path fill="#FFFFFF" d="M100.442,32.596c1.878-0.007,3.753-0.446,5.32-1.279l1.273,2.612c-2.049,1.055-4.317,1.535-6.585,1.544
			c-3.011,0.006-5.414-1.08-6.814-2.953c-1.661-2.263-1.67-4.881-1.677-7.717c-0.007-3.403-0.011-5.409,1.554-7.595
			c1.392-1.967,4.007-3.107,7.104-3.114c2.183-0.005,3.929,0.559,5.241,1.602c1.31,1.088,2.144,2.701,2.191,4.402
			c0.003,1.92-0.951,3.406-2.172,4.282c-1.829,1.312-3.704,1.314-6.803,1.323l-4.013,0.011c0.003,1.134,0.006,3.709,1.016,5.059
			C96.95,31.947,98.349,32.596,100.442,32.596 M103.855,17.883c-0.741-0.609-1.878-0.912-3.231-0.91
			c-1.964,0.005-3.531,0.576-4.488,1.712c-1.088,1.268-1.082,3.45-1.081,4.322l4.014-0.008c2.749-0.006,3.971-0.01,4.884-0.709
			c0.567-0.438,1.047-1.181,1.044-2.184C104.951,19.276,104.513,18.404,103.855,17.883"/>
		
			<path fill="none" stroke="#FFFFFF" stroke-width="0.879" stroke-linecap="round" stroke-linejoin="round" stroke-miterlimit="10" d="
			M73.622,17.21c1.174-1.967,3.178-3.062,5.667-3.067c2.049-0.004,3.839,0.733,5.021,1.864c2.187,2.088,2.194,4.795,2.198,8.065
			l0.027,11.17L83.48,35.25l-0.025-11.168c-0.006-2.879-0.011-4.842-1.322-6.062c-0.657-0.608-1.662-1-2.839-0.997
			c-1.18,0.003-2.182,0.398-2.835,1.01c-1.305,1.226-1.3,3.189-1.294,6.07l0.025,11.165l-3.054,0.009l-0.025-11.168
			c-0.007-2.879-0.011-4.843-1.323-6.061c-0.656-0.61-1.66-1.001-2.839-0.997c-1.177,0.001-2.18,0.396-2.833,1.01
			c-1.305,1.224-1.301,3.188-1.294,6.066l0.025,11.17l-3.054,0.006l-0.026-11.168c-0.006-3.272-0.014-5.978,2.164-8.076
			c1.175-1.137,2.962-1.883,5.011-1.889C70.431,14.164,72.439,15.249,73.622,17.21z"/>
		<path fill="#FFFFFF" d="M73.622,17.21c1.174-1.967,3.178-3.062,5.667-3.067c2.049-0.004,3.839,0.733,5.021,1.864
			c2.187,2.088,2.194,4.795,2.198,8.065l0.027,11.17L83.48,35.25l-0.025-11.168c-0.006-2.879-0.011-4.842-1.322-6.062
			c-0.657-0.608-1.662-1-2.839-0.997c-1.18,0.003-2.182,0.398-2.835,1.01c-1.305,1.226-1.3,3.189-1.294,6.07l0.025,11.165
			l-3.054,0.009l-0.025-11.168c-0.007-2.879-0.011-4.843-1.323-6.061c-0.656-0.61-1.66-1.001-2.839-0.997
			c-1.177,0.001-2.18,0.396-2.833,1.01c-1.305,1.224-1.301,3.188-1.294,6.066l0.025,11.17l-3.054,0.006l-0.026-11.168
			c-0.006-3.272-0.014-5.978,2.164-8.076c1.175-1.137,2.962-1.883,5.011-1.889C70.431,14.164,72.439,15.249,73.622,17.21"/>
		
			<path fill="none" stroke="#FFFFFF" stroke-width="0.879" stroke-linecap="round" stroke-linejoin="round" stroke-miterlimit="10" d="
			M43.731,14.489l4.134,14.038c0.66,2.269,0.966,3.228,1.23,3.618c0.261,0.395,0.698,0.48,1.134,0.521l3.885-18.202l3.139-0.007
			L52.291,37.11c-0.475,2.141-0.821,3.495-1.777,4.587c-0.915,1.049-2.396,1.883-4.229,1.885c-0.96,0.002-1.964-0.215-2.924-0.559
			l0.91-2.709c0.697,0.261,1.353,0.39,2.009,0.39c0.829-0.002,1.394-0.269,1.873-0.747c0.61-0.612,0.869-1.616,1.474-4.452
			c-1.222-0.171-2.228-0.737-2.839-1.521c-0.658-0.87-0.833-1.657-1.801-4.794l-4.441-14.694L43.731,14.489z"/>
		<path fill="#FFFFFF" d="M43.731,14.489l4.134,14.038c0.66,2.269,0.966,3.228,1.23,3.618c0.261,0.395,0.698,0.48,1.134,0.521
			l3.885-18.202l3.139-0.007L52.291,37.11c-0.475,2.141-0.821,3.495-1.777,4.587c-0.915,1.049-2.396,1.883-4.229,1.885
			c-0.96,0.002-1.964-0.215-2.924-0.559l0.91-2.709c0.697,0.261,1.353,0.39,2.009,0.39c0.829-0.002,1.394-0.269,1.873-0.747
			c0.61-0.612,0.869-1.616,1.474-4.452c-1.222-0.171-2.228-0.737-2.839-1.521c-0.658-0.87-0.833-1.657-1.801-4.794l-4.441-14.694
			L43.731,14.489z"/>
		
			<path fill="none" stroke="#FFFFFF" stroke-width="0.879" stroke-linecap="round" stroke-linejoin="round" stroke-miterlimit="10" d="
			M35.574,33.357c-1.306,1.526-3.354,2.274-5.971,2.279c-2.094,0.006-3.885-0.429-5.283-1.426c-1.443-1.001-2.625-2.744-2.63-5.014
			c-0.005-2.309,1.169-4.014,2.562-5.022c2.048-1.487,4.49-1.493,6.193-1.496l3.576-0.008c-0.004-1.354-0.008-3.099-1.057-4.274
			c-0.744-0.827-1.878-1.261-3.537-1.256c-1.92,0.004-3.838,0.445-5.67,1.147l-0.965-2.747c2.048-0.746,4.272-1.275,6.627-1.28
			c2.618-0.005,4.584,0.818,5.895,2.298c1.752,1.96,1.756,4.534,1.763,6.847l0.006,3.229C37.092,29.556,37.098,31.561,35.574,33.357
			z M34.029,25.374l-3.578,0.009c-1.484,0.004-3.054,0.006-4.274,0.881c-0.784,0.571-1.436,1.574-1.434,2.928
			c0.004,1.222,0.616,2.18,1.402,2.745c0.831,0.566,2.054,0.822,3.448,0.82c1.615-0.003,2.879-0.354,3.62-1.23
			c0.826-0.96,0.822-2.314,0.817-4.887L34.029,25.374z"/>
		<path fill="#FFFFFF" d="M35.574,33.357c-1.306,1.526-3.354,2.274-5.971,2.279c-2.094,0.006-3.885-0.429-5.283-1.426
			c-1.443-1.001-2.625-2.744-2.63-5.014c-0.005-2.309,1.169-4.014,2.562-5.022c2.048-1.487,4.49-1.493,6.193-1.496l3.576-0.008
			c-0.004-1.354-0.008-3.099-1.057-4.274c-0.744-0.827-1.878-1.261-3.537-1.256c-1.92,0.004-3.838,0.445-5.67,1.147l-0.965-2.747
			c2.048-0.746,4.272-1.275,6.627-1.28c2.618-0.005,4.584,0.818,5.895,2.298c1.752,1.96,1.756,4.534,1.763,6.847l0.006,3.229
			C37.092,29.556,37.098,31.561,35.574,33.357 M34.029,25.374l-3.578,0.009c-1.484,0.004-3.054,0.006-4.274,0.881
			c-0.784,0.571-1.436,1.574-1.434,2.928c0.004,1.222,0.616,2.18,1.402,2.745c0.831,0.566,2.054,0.822,3.448,0.82
			c1.615-0.003,2.879-0.354,3.62-1.23c0.826-0.96,0.822-2.314,0.817-4.887L34.029,25.374z"/>
		<path fill="#FFFFFF" d="M14.988,16.78c2.101,2.351,2.107,5.405,2.113,8.109c0.007,2.967,0.014,5.846-1.943,8.207
			c-1.261,1.529-3.31,2.582-5.885,2.589c-2.138,0.004-4.059-0.996-5.241-2.651L4.056,43.42l-3.055,0.007L0.958,24.579
			c-0.008-3.534-0.014-5.584,1.727-7.64c1.697-2.009,4.227-2.627,6.233-2.631C11.536,14.301,13.633,15.3,14.988,16.78 M5.046,18.767
			c-1.045,1.223-1.041,3.056-1.036,5.369c0.007,3.228,0.013,5.627,1.326,7.153c0.789,0.913,2.055,1.521,3.712,1.517
			c1.658-0.005,2.923-0.618,3.706-1.535c1.305-1.529,1.299-3.93,1.293-6.374c-0.006-2.487-0.011-4.711-1.411-6.278
			c-0.787-0.873-2.096-1.436-3.712-1.431C7.354,17.19,5.873,17.761,5.046,18.767"/>
		
			<path fill="none" stroke="#FFFFFF" stroke-width="0.879" stroke-linecap="round" stroke-linejoin="round" stroke-miterlimit="10" d="
			M14.988,16.78c2.101,2.351,2.107,5.405,2.113,8.109c0.007,2.967,0.014,5.846-1.943,8.207c-1.261,1.529-3.31,2.582-5.885,2.589
			c-2.138,0.004-4.059-0.996-5.241-2.651L4.056,43.42l-3.055,0.007L0.958,24.579c-0.008-3.534-0.014-5.584,1.727-7.64
			c1.697-2.009,4.227-2.627,6.233-2.631C11.536,14.301,13.633,15.3,14.988,16.78z M5.046,18.767
			c-1.045,1.223-1.041,3.056-1.036,5.369c0.007,3.228,0.013,5.627,1.326,7.153c0.789,0.913,2.055,1.521,3.712,1.517
			c1.658-0.005,2.923-0.618,3.706-1.535c1.305-1.529,1.299-3.93,1.293-6.374c-0.006-2.487-0.011-4.711-1.411-6.278
			c-0.787-0.873-2.096-1.436-3.712-1.431C7.354,17.19,5.873,17.761,5.046,18.767z"/>
	</g>
</g>
</svg>
